<svg xmlns="http://www.w3.org/2000/svg" width="285.742" height="101.002" viewBox="0 0 285.742 101.002"><g transform="translate(2.624 1.28)"><path d="M337.458,134.584a1.91,1.91,0,0,1-.14,1.292,5.416,5.416,0,0,0-.567,2.325c.1.638,1.139,2.635,2.059,2.695l.914-1.209c.788-1.044,1.845.009,2.739-.547.481-.3.78,1.6,1.329.269l.328-.8a1.278,1.278,0,0,0,1.539-.887c.217-.677.965-1.644,1.085-.938s.277,2.96.017,3.068a2.5,2.5,0,0,0-1.007,1.7c.006.7-.3,2.985-.7,3.015s-1.454.8-1.112,1.62l.157.474.137.414c.178.732-.144,1.329-.717,1.323s-1.994-1.967-2.133-2.1a4.86,4.86,0,0,0-.865-.624,6.122,6.122,0,0,1-.681-1.763c-.007-.14.1-1.035.279-1.14a1.672,1.672,0,0,0,.6-1.141l-.042-.014c-.567-.176-1.067.582-1.6.978l-.826.618c-1.044-.149-1.983-.6-2.087-1s-.939-1.438-1.529-1.056A24.686,24.686,0,0,0,331.5,144.3c-.549.716-2.129-.353-2.131-.606s.138-1.164.317-1.257a1.1,1.1,0,0,0,.221-1.284c-.322-.475-1.48-1.811-1.777-1.788a1.9,1.9,0,0,0-1.116,1.836l.162.223.439.6a1.151,1.151,0,0,1,.39,1.495c-.3.393-.869,2.072-.6,2.1a13.752,13.752,0,0,0,2.009-.12l.521.084.54.087c.666.308,1.31.275,1.433-.072s.644-1.387.751-1.15a.559.559,0,0,0,1-.075c.3-.579,1.214.508.989.665s-.724.886-.582,1.256a4.337,4.337,0,0,1,.036,2.068,7.869,7.869,0,0,0-.192,3.291c.283.561,1.25,1.96,1.561,1.937s1.218-.334,1.237-.633.458-1.287.92-1.32,1.816.074,1.844.326.257,1.244.4,1.233a.851.851,0,0,1,.644.648c.045.379.506,1.463.906,1.435s1.5.158,1.606.478a5.553,5.553,0,0,1,.223,1.746c-.069.4-.93,1.517-1.725,1.385s-2.953-2.181-2.85-1.465a6.364,6.364,0,0,0,.763,2.4,1.456,1.456,0,0,1,.806,1.305c-.119.576-.55,1.76-.783,1.776s-.883-.149-.82-.415a4.185,4.185,0,0,0,.049-1.514c-.124-.2-.666-.744-.8-.562s-.739.29-.746-.573-.309-2.767-.659-2.506a7.788,7.788,0,0,0-1.543,1.564c-.1.3-.561.964-.681.418a9.671,9.671,0,0,0-.553-1.869l-.072.161-.884,1.991a18.425,18.425,0,0,0-2.358-1.88c-.285-.128-.811,1.523-.6,1.635s.721.594.724.857a3.871,3.871,0,0,1-.279,1.31c-.157.262-.777.693-.993.317a6.424,6.424,0,0,1-.727-1.94c.068-.254-.144-.385-.646.373l-.408.762-.422.788c-.561,1.193-1.368,2.226-1.794,2.293s-2.166-1.52-2.886-2.1l-.656.253-.924.356c-1.05-.931-1.783-1.866-1.629-2.08a3.389,3.389,0,0,0,.507-1.165,2.572,2.572,0,0,0-1.582-1.487c-.865-.224-3.181-.525-3.211-.165s-.371.929-.694.49-1.368-.529-1.4-.2a4.284,4.284,0,0,0,.13,1.49,2.864,2.864,0,0,1-.458,2.176l.01.609.036,2.2c-.5.248-1.069.328-1.264.174s-1.192.705-1.636.737-1.689.385-1.687.7,1.264,1.325,2.8,1.212,5.439-.153,5.3.159-.932.713-1.424.965-.525,2.266.967,3.056l1.274-2.48c.042-.083.118.021.171-.03.759-.735,1.4.981,2.132.956l.711-.024c.885.248,1.72.183,1.856-.147s.811-1.445.786-.744.221,2.692.6,3.027,1.532.905,1.558,1.178a.476.476,0,0,1-.748.424c-.461-.277-2.123.95-2.661.135s-4.634-1.757-7.647-1.662-11.346.056-11.825.012l-.4-.883c-.266-.587-.539,1.905-.966.155l-.1-.4a11.08,11.08,0,0,1-1.363,1.154c-.2.113-1.228-.3-1.776-.529l-.5-.051-.513-.051c-.584-.284-.877-.632-.651-.77s.906-.92.855-1.334a13.28,13.28,0,0,1,.118-2.973c.182-.7.539-3.316.164-3.355s-1.284-.365-1.3-.653.085-1.3.266-1.408.683-.614.687-.893a5.7,5.7,0,0,0-.1-1.17,19.629,19.629,0,0,0-3.473-.65c-1.794-.253-7.985-.1-9.747-.17s-6.489-.5-6.51-.708a3.229,3.229,0,0,0-1.714-1.7c-.867-.2-3.428,1.248-3.626,1.036s-3.082-.2-5.895-.006-10.976.85-11.889.988-4.759,1.779-6.628,2.26l-1.7.322-1.681.32a13.013,13.013,0,0,1-4.027-.367,15.4,15.4,0,0,0-2.631-.683l-.627-.723-.3-.346a2.7,2.7,0,0,1-.444-1.474.988.988,0,0,0-.981-1.024,14.858,14.858,0,0,0-2.544.362,1.048,1.048,0,0,0,.648.567l.335.02.407.024a1.116,1.116,0,0,1,1.112.759,5.816,5.816,0,0,1,.318,2.2l-.148.105-.42.3a2.1,2.1,0,0,1-1.893-.078l-.537.03c-3.6.206-7.207.522-10.811.755a3.966,3.966,0,0,1-3.188-.69l-1.089-.9c-1.229,1.1-5.375,2.248-9.212,2.554l-8.188.677c-3.838.262-7.05.448-7.137.414s-.12-.571.46-.967a1.331,1.331,0,0,0-.2-2.295l-1.145.946-1.307,1.08a13.179,13.179,0,0,1-3.5-.914c-.358-.254-4.156-.217-7.64.035s-12.914.8-13.21.7-1.455-.111-1.658.292l-.3.051-1.219.206c-1.339-.014-3.514-.08-4.834-.146a49.216,49.216,0,0,1-6.24-.72l-.7,1.555a.742.742,0,0,1-1.357.129c-1.229-1.585-2.477-.657-3.712-.672l-1.791-.024c-1.988.57-3.469,1.149-3.291,1.287s.646.6.643.72a3.863,3.863,0,0,1-2.07.6l-1.03.077-2.092.155c-2.3.189-4.7.059-5.337-.29l-.459,1.737a.349.349,0,0,1-.669.054c-.791-1.423-1.653-.629-2.474-.979l-.141-.06c-.114-.438-.4-.573-.644-.3a4.779,4.779,0,0,1-1.963.72c-.607.08-3.4.4-4.861.728l-1.23,1.818-.143.211a.914.914,0,0,1-.5-.728,10.36,10.36,0,0,0-.244-1.352,2.728,2.728,0,0,0-1.254.065,30.938,30.938,0,0,0-4.137.636l-.9.97c-.98,1.057-1.89.6-2.831.768l-.038.006c-.055-.707-.1-1.241-.1-1.187s.113.34.237.256.447-.411.44-.537-.124-.424-.246-.384-.846.826-1.347,1.146a6.019,6.019,0,0,1-1.85.755,5.108,5.108,0,0,1,.526-1.466c.315-.588.3-1.827-.879-1.167l-1.023.323-.944.3c-1.123.681-1.416.765-.652.187s2.479-4.376,2.261-5.04-1.493-2.089-2.143-1.893a13.3,13.3,0,0,0-2.893,1.883c-.3.323-1.327-.726-1.538-.738s-.651-.824-.471-.962.7-.726.637-.908-.814-.329-1.585-.362l-.74,1.071-.667.964c-.979-.325-1.785-1.164-1.791-1.866s.039-2.845.112-3.08.711-.968,1.188-.893,1.316-3.2,1.023-3.457l-.191,0c-.7.014-1.487-.508-2.061.334l-.646.946a2.67,2.67,0,0,0-1.713-1,9.408,9.408,0,0,0-1.7.35c-.17.128-.337-1.268-.33-1.244s.079,0,.131-.143a2.636,2.636,0,0,0,.149-.621c-.021-.06-.111-.086-.154.078s-.226.659-.331.68-.437-.287-.371-.714a2.967,2.967,0,0,1,1.147-1.736c.512-.188,1.591-1.911,1-2.214s-2.114-.585-2.3-.059-.8,1.505-1.02,1.175a5.042,5.042,0,0,1-.708-1.957,5.287,5.287,0,0,0,.02-1.838l-.118.077-.628.414c-.8.074-1.339.017-1.2-.125s.48-.648.437-.809.226-.614.7-.65a5.547,5.547,0,0,0,1.72-.349.8.8,0,0,0-.539-.564c-.306-.065-1.135-.469-1.069-.734s-.184-.582-.737.014-2.09-.845-2.093-1.269a6.307,6.307,0,0,1,.491-2.375c.279-.244,1.144.8,1.343.427a5.1,5.1,0,0,1,2.029-1.726l.669.014.665.012c.894-.994,1.412-1.893,1.151-2s-1.053-.654-.858-.853.538-.708.5-.871a.741.741,0,0,1,.663-.648c.433-.032,1.1-.305.514-.535s-3.152,1.514-4.342,3.1L84.558,132.7c-.16-.284-.5.447-.764.639l-.311.227c-.38-.188-.483-.946-.228-1.687l.269-.193c.86-.615,1.739-.984,2.607-1.508l.056-.035c.031-.7.057-1.232.059-1.17s.163.365.351.275.68-.432.675-.562-.169-.442-.356-.4a11.38,11.38,0,0,0-1.076.823c-.222.134-.886.009-.926-.319s-.377-1.572-.6-1.554-.888-.683-.868-1.6l.084-.12.529-.763c.675-.794,1.055-1.523.845-1.623a1.173,1.173,0,0,1-.23-1.326c.265-.546,1.455-1.633,1.4-1.842s-.109-1.09.09-1.229.4-.564-.18-.5a14.035,14.035,0,0,1-3.02.223c-.552-.162-1.98,1.119-1.987.841a3.4,3.4,0,0,1,1.891-1.7,19.76,19.76,0,0,1,4.351-.991c.288.108,1.126-.719,1.412.087s1-1.939,1-1.883.113.34.237.256.447-.411.44-.537-.124-.426-.246-.384a2.539,2.539,0,0,1-1.619.077l-.591.047-.52.041c-.594.678-1.1.956-1.132.62s.148-1.551.481-1.654.52-.567-.3-.8-3.265.774-3.386.364a8.627,8.627,0,0,1,.717-3.934l.7.168.346.083c.385-.069,2.9-.66,5.6-1.311l2.443-.653c1.224-.328,2.531-1.731,3.575-4.4l.694-1.775c.865-.132,1.513.31,1.44.982s-.162,2.742.068,2.158l.106-.03c.737-.208,1.591-1.122,2.182-.293l.65.91c.642-.137,4.308-.48,8.146-.759L133.21,102.3a43.041,43.041,0,0,0,7.775-1c.438-.272,1.7,1.423,1.915,1.551l.107-.268c.756-1.884,1.648-1.108,2.474-1.176,8.547-.7,18.666-1.417,18.666-1.417,3.838-.272,7.245-.435,7.571-.361s1.707.09,1.9-.253l.363-.068A31.678,31.678,0,0,1,177.465,99c11.979-.886,28.958-2.12,28.958-2.12,3.838-.278,8.59-1.337,10.56-2.352l1.849.259a26.283,26.283,0,0,0,5.581-.325l5.757-.424,5.582-.414,1.861-.137a24.961,24.961,0,0,0,4.487-.674,4.175,4.175,0,0,1,2.791-.065l.728-.765c.735-.771,1.611-.277,2.425-.337l2.268-.167,2.442-.18,2.267-.168L270.9,89.962l.524-.039a3.562,3.562,0,0,0,1.878-.508l.454.262c.5.289,1.043-.087,1.565-.026l1.642.193a39.365,39.365,0,0,0,6.538.259l1.628-.12,5.059-.374.447-.032c.492-.038.9-.185.9-.329a.917.917,0,0,0-.453-.669c-.253-.078.273-1.236,1.729-2.4l1.319,1.92.095.137c.129-.012,2.125.693,4.436,1.567l2.117-.991a1.564,1.564,0,0,0,.936-.8l.283-.591c.258.256.925-.155,1.482-.914s2.427.863,2.737.978,1.428-.965,2.051-1.441l.522.158c.679.206,1.324,1.778,2-.2.09-.263.437.065.619.374l.623,1.062c.557-.887,1.229-1.445,1.493-1.241s.949.6.966.453a1.673,1.673,0,0,0-.142-.788,2.6,2.6,0,0,1-.441-.981,4.952,4.952,0,0,1,.235-1.384l.075.081c1.271,1.376,2.58.755,3.879.781l.661.012a9.988,9.988,0,0,0,1.767.952l.226-.129.961-.552c1.281-.8.782-2.02-1.109-2.706l-1.493.308-2.013.415a20.587,20.587,0,0,0-7-1.08c-1.677.153-7.458-.7-9.161-.8a65.883,65.883,0,0,0-9.285.577c-1.7.347-9.288-.155-13.127-.131,0,0-1.193.008-5.275.051s-5.34.168-5.34.168c-3.837.376-7.052.472-7.144.214s-.258-1.639.129-1.668l.215-.015,1.454-.108c1.6-.111,5.425-.065,8.5.105s13.731-.623,16.832-.871,12.939-.99,14.966-1.138,8.421.675,9.745.593,6.229.582,8,.522l1.528.9,1.207.713c1.266-.526,1.957-1.02,1.535-1.1l-.383-.011-.394-.012c-.652.066.485-.614,2.527-1.511l.783.65c.262.217.536.641.789.55,1.542-.546,3.075.053,4.567.916a11.1,11.1,0,0,0,2.661.8l.827.253c.9.391,3.635,1.748,6.067,3.014l2.2,1.366.421.262a7.516,7.516,0,0,1,1.371,2.078,11.64,11.64,0,0,0,.6,1.746,8.407,8.407,0,0,1,1.726,2.5l.865.355,1.068.438a16.784,16.784,0,0,0,1.574,3.829,1.158,1.158,0,0,1,.568,1.095c-.091.519-1,.871-1.863-.1s-4-2.11-4.914-2.37l-.834-.215c-.775-.2-1.559.3-2.311-.91a1.874,1.874,0,0,0-2.474-.91c-1.311.4-2.523-.48-3.685-2.328l-.272-.433a.554.554,0,0,0-.729.525,5.478,5.478,0,0,1-.334,1.441,1.113,1.113,0,0,1-.367-.981c.061-.522-.279-1.441-.885-.9s-2.027.931-1.712,1.008a3.994,3.994,0,0,1,1.15.442,1,1,0,0,1-.343.562c-.193.131-.7.57-.7.683a1.155,1.155,0,0,0,.676.629l.316-.18c1.32-.758,2.613.332,3.866,1.018.93.508,1.842,1.865,2.824,2.172.44.137.877.508,1.315.5.911-.018,1.711.737,2.5,2.184l.758,1.394a3.423,3.423,0,0,1,2.328,2.11l.313.161c1.117.577,2,2.4,2.945,4.127.719,1.314,1.354,3.557,2.36,3.226l.224-.074a5.181,5.181,0,0,1,.343,2.277c-.1.48.043,1.788.488,2.092s1.162,1.29.5,1.448-1.489,4.754-1.577,4.53-.587-.293-.841.511l-.279.466-.278.466c-.4.257-.692.632-.64.833a5.678,5.678,0,0,1,.136,1.226l-.053.217c-.069.284-.147.7-.24.753l-1.311.716c-1.547.79-2.531.744-2.187-.1s1.119-3.588.916-4.17l-.166-.165-.406-.408c-.457-.311-.87-.444-.916-.3s-.373-.1-.64-.821-1.366-2.73-1.845-2.836-1.838.988-2.045.8-.779-1-.544-1.169a1.486,1.486,0,0,0,.528-1.173c-.1-.374-.573-1.227-.743-.728s-.795,1.313-1.1.952a4.789,4.789,0,0,1-.945-2.2,7.09,7.09,0,0,0-.006-2.245l-.078.054c-1.168.815-2.2-.812-3.2-2.065l-.859-1.086a1.223,1.223,0,0,0-.221,2.111,16.583,16.583,0,0,1,2.7,3.008,4.554,4.554,0,0,0,1.008,2.187c.627.744,2.107,3.032,1.863,3.393a4.641,4.641,0,0,0,.266,3.4c.654,1.119,2.771-.355,3.117.125a9.773,9.773,0,0,1,1.279,2.518,8.087,8.087,0,0,0,.458,2.127c.22.436,1.109,1.468,1.5,1.349s1.591-.6,1.507-.17a7.4,7.4,0,0,0-.156,1.483,4.166,4.166,0,0,1,.127,1.087l-.062.152a3.4,3.4,0,0,1-.544,1.084l-.44.338a3.588,3.588,0,0,1-1.685.135c-.428-.1-1.494.212-1.156,1.008s-.455,3.993-1.118,4.042-2.6-.032-2.407-.319a2.4,2.4,0,0,0-.489-2.271l-.5-.907-.449-.811c-.605-.716-1.343-1.641-1.639-2.053s-.854-2.14-.85-1.683-.242,2.105-.557,2.2a2.608,2.608,0,0,0-1.279,1.554,10.093,10.093,0,0,0-.046,2.73l.029-.1.5-1.7C336.425,133.765,337.351,134.16,337.458,134.584ZM108.024,161.946c-.31.46-.825.632-1.144.382s-.88.562-.565.538,1.389-1.466,1.708-1.217S108.334,161.487,108.024,161.946Zm38.949-2.56a8.144,8.144,0,0,0,2.366,1.681l1.2-2.12c.354-.626,1.059-.787,1.338-.119l.608,1.456a7.762,7.762,0,0,1,2.828-.759l.813-.06c4.818-.355,7.475-.547,7.475-.547a67,67,0,0,0,7.446-.777c.257-.149,1.053.507,1.489.147l.367-.035c2.437-.232,4.876-.374,7.313-.583l.272-.024c.3-.224.535-.487.528-.588a37.368,37.368,0,0,0-6.34.105c-3.472.257-12.806.582-12.921.147a1.772,1.772,0,0,0-1.921-.853,46.488,46.488,0,0,1-4.737.841,39.3,39.3,0,0,0-4.822.832A19.609,19.609,0,0,0,146.974,159.386Zm162.275-.248c.713-.793-.2-1.331-2.032-1.2l-1.664.123c-.753.056-1.521.411-2.256.087-.841-.371-1.494,1.414-2.285,1.35l-.035,0c-.051.453.057.88.24.95s.67.525.663.847-.388,1.453-.825,1.484-1.577.262-1.575.439a3.606,3.606,0,0,0,2.481.463l1.237-.092,1.27-.095C305.843,163.4,308.535,159.931,309.248,159.138ZM151.281,106.106a42.557,42.557,0,0,0,6.98-.811c0-.162-3.136-.359-6.974-.077L131.3,106.7c-3.838.287-7.02.606-7.072.711l-.03.137-.02.092c0,.256,3.141.233,6.98-.051Zm41.352,49.146a4.072,4.072,0,0,1-2.979-.432l-.767.15-.817.161a3.619,3.619,0,0,1-3.032.191l-.776.853-.756.83c-1.132-.035-1.644.161-1.138.435s1.733.79,1.767.629a18.467,18.467,0,0,1,4.409-.63c2.345-.182,8.749-.4,8.817-.095s.536.4.98-.072.92-1.984.123-2.379S193.441,154.982,192.633,155.252Zm30.783,2.22c-.073-.223-.568.077-1.1.666l-.155-.438-.526-1.483a6.6,6.6,0,0,1-2.742.695,43.044,43.044,0,0,0-6.4,1.283l-1.573.528-.033.012c-.025.4,1.881.579,4.235.4S223.488,157.7,223.416,157.472Zm-97.185,2.645c.084-.328-.58-.543-1.475-.478a19.624,19.624,0,0,0-3.272.475l-.025.15-.015.09c.023.257.477.435,1.009.4s2.141.211,2.248.651.565,1.475.8,1.4.816-.517.728-.808A6.915,6.915,0,0,1,126.231,160.117Zm5.51-.092c1.189-.087,1.529-.03.755.129s-2.942-1.426-3.429-1.176a10.074,10.074,0,0,0-1.673,1.032A33.029,33.029,0,0,0,131.741,160.026Zm97.762-6.167c-2.552-1.066-5.775-.68-7.079.522Zm95.429-66.447c-1.041.393-1.9.871-1.9,1.063a4.233,4.233,0,0,0,1.834,1.608l.924.042.9.041c1-.483.987-.6-.021-.271l-.691-.985Zm-182.486,71.8a3.955,3.955,0,0,0,1.579-.286,2.789,2.789,0,0,0-1.6-.218,30.974,30.974,0,0,0-3.167.359A19.063,19.063,0,0,0,142.447,159.216Zm-53.474-38.5c.549-.32.992-.665.986-.769s-.475-.34-1.027-.3-2.024.406-2.021.72S88.424,121.034,88.973,120.715Zm232.579,38.539a1.371,1.371,0,0,0-.046.563c.03.1.418-.137.8-.764l.349-.026.38-.03c.471.564.844.69.829.278a3.755,3.755,0,0,0-1.358-2.027l-.638-.355-.14-.078a1.221,1.221,0,0,0-.206.907A6.2,6.2,0,0,1,321.552,159.254Zm-100.069-4.59c.4-.271.722-.608.71-.75s-.439-.412-.924-.286a11.143,11.143,0,0,0-1.758.581,4.289,4.289,0,0,0,.177.723C219.778,155.185,221.081,154.935,221.483,154.664ZM199.026,159.7c-.617.045-1.119.215-1.115.376s.5.555,1.1.513a8.4,8.4,0,0,0,2.2-.427A5.389,5.389,0,0,0,199.026,159.7Zm121.591-6.143c-1.118-.6-2.257-1.038-3.367.248Zm-204.505,7.623c-1.015-.638-2.035-1.117-3.018.223Zm89.659-2.021c-.223.379-.056.663.37.632s1.446-.42,1.194-.785S205.994,158.776,205.771,159.155ZM88.062,127.062a.742.742,0,0,0,.183.984c.318.314,1.06-.812.949-1.122S88.279,126.835,88.062,127.062ZM316.007,88.953c-.361.027-.653.208-.648.4a1.252,1.252,0,0,0,.683.88C316.407,90.329,316.368,88.926,316.007,88.953Zm-90.206,69c.037.277.216.253.4-.053a6.716,6.716,0,0,0,.575-1.188.415.415,0,0,0-.473-.239C226.064,156.543,225.764,157.68,225.8,157.956ZM319.417,89.4c-.543-.708-1.1-1.129-1.623.12Zm6.251-4.739c-.549-.707-1.11-1.143-1.623.12ZM237.9,153.24c-.547-.134-1.148-1.815-1.721.126ZM98.762,158.529c.549.707,1.11,1.143,1.623-.12Zm39.979,5.246c.234-.017.424-.17.424-.34s-.2-.561-.432-.493-.856.341-.853.462S138.508,163.793,138.741,163.775Zm78.4-9.7c-.233.017-.419.168-.412.335s.212.558.443.493.834-.331.831-.451S217.371,154.057,217.137,154.075Zm21.684,3.745c-.234.017-.423.17-.421.34s.2.565.435.5.851-.34.848-.462S239.055,157.8,238.821,157.819ZM86.114,126.895c.256-.018.465-.114.464-.212a.477.477,0,0,0-.468-.322c-.256.018-.93.149-.929.247S85.858,126.914,86.114,126.895Zm2.914-15.821c-.233.017-.42.168-.414.337s.21.556.442.493.838-.332.834-.453S89.262,111.056,89.028,111.074Zm237.355,30.155c.1-1.624.1-1.624-.747-1.355ZM208.644,155.854c-.192.015-.348.107-.347.2s.16.344.352.331.7-.132.7-.23S208.836,155.84,208.644,155.854Zm-80.958,7.668a.337.337,0,0,0,.3-.338c0-.173-.149-.562-.32-.478s-.618.388-.615.49S127.516,163.534,127.686,163.522Zm-41.817-41.51a.338.338,0,0,0-.3.338c0,.173.149.562.32.48s.618-.388.615-.49S86.039,122,85.869,122.012ZM338.9,119.025a.332.332,0,0,0,.3-.341c0-.174-.156-.567-.324-.481s-.611.394-.607.5S338.729,119.037,338.9,119.025ZM87.713,139.708a.327.327,0,0,0,.3-.338c-.007-.173-.162-.559-.329-.472s-.6.4-.6.495S87.543,139.72,87.713,139.708Zm255.607-51c.106-.008.186-.152.178-.32s-.115-.546-.218-.462-.372.38-.366.472S343.215,88.72,343.32,88.712Zm-1.277-1.6a.228.228,0,0,0-.231.2c0,.1.108.349.236.338s.464-.114.464-.212S342.171,87.106,342.043,87.117Zm-21.617,1.511c-.106.008-.186.152-.178.322s.115.544.219.462.371-.382.366-.474S320.532,88.621,320.426,88.628Zm20.228-2.564c-.106.008-.186.152-.178.32s.115.546.218.462.371-.38.366-.474A.641.641,0,0,0,340.654,86.064ZM309.6,88.356c-.106.009-.186.153-.178.322s.115.546.219.462.371-.38.366-.474S309.708,88.349,309.6,88.356ZM335.6,85c.106-.009.189-.152.184-.32s-.1-.544-.211-.465-.382.367-.378.463A.646.646,0,0,0,335.6,85Zm-11.614,59.123a.229.229,0,0,0-.231.2c0,.1.108.349.236.34s.465-.114.464-.212S324.116,144.114,323.989,144.123Zm-3.5,15.868c.106-.008.186-.152.178-.322s-.115-.544-.219-.462-.371.382-.366.475S320.384,160,320.49,159.991ZM133.173,162.5a.231.231,0,0,0-.231.2c0,.1.108.349.236.34s.465-.114.464-.212S133.3,162.489,133.173,162.5ZM88.54,139.475a.835.835,0,0,0,.042.353.652.652,0,0,0,.075-.362,5.048,5.048,0,0,0-.044-.71A3.961,3.961,0,0,0,88.54,139.475Zm256.984-9.344a.127.127,0,0,0,.115-.126c0-.066-.054-.235-.118-.23s-.232.071-.232.137A.384.384,0,0,0,345.523,130.131Zm-2.015-19.48a.13.13,0,0,0-.115.128c0,.066.054.235.118.229s.232-.069.232-.135S343.572,110.647,343.508,110.651Zm-4.036-25.04a.838.838,0,0,0,.041.353.648.648,0,0,0,.075-.362,4.981,4.981,0,0,0-.044-.71A3.969,3.969,0,0,0,339.472,85.611Zm-23.967.7a.129.129,0,0,0,.116-.128c0-.065-.054-.233-.118-.229s-.232.071-.232.135A.383.383,0,0,0,315.505,86.311ZM297.2,170.1a.835.835,0,0,0,.042.353.651.651,0,0,0,.075-.362,5.129,5.129,0,0,0-.044-.71A3.965,3.965,0,0,0,297.2,170.1ZM240.5,152.52a.128.128,0,0,0-.115.128c0,.065.054.233.118.229s.232-.071.232-.135A.382.382,0,0,0,240.5,152.52Zm-5.233.387a.128.128,0,0,0-.115.128c0,.065.054.233.118.229s.232-.071.232-.135A.382.382,0,0,0,235.269,152.906Zm-1.742.486a.835.835,0,0,0,.042.353.651.651,0,0,0,.075-.362,5.115,5.115,0,0,0-.044-.71A4.022,4.022,0,0,0,233.527,153.392Zm-20.6-.62a.834.834,0,0,0,.042.353.648.648,0,0,0,.075-.362,5.055,5.055,0,0,0-.044-.71A4,4,0,0,0,212.925,152.772Z" transform="translate(-80.969 -77.949)" fill="#bd1550"/></g><g transform="translate(163.699 95.373)"><path d="M464.7,138.732a2.269,2.269,0,0,1-1.1-.208,1.966,1.966,0,0,0-.811-.38c-.19.01-1.577.146-2.66.322s-4.407.2-4.926.3a10.952,10.952,0,0,1-2.155-.138c-.135-.017-1.281.091-2.305.147a19.017,19.017,0,0,1-3.356-.05c.233-.108.848-.456.8-.512s-.171-.249-.14-.3,3.259-.159,7.1-.245c0,0,4.995-.112,10.982-.232l.378-.008c.417.112.881.226,1.033.254a6.267,6.267,0,0,0,1.488-.292l.475-.01c.475-.011.964.266,1.431.233a7.284,7.284,0,0,1,1.609.306c.811.108,1.533-.331,2.289-.337l1.406-.011c1.557.066,3.486.175,4.287.242a30.579,30.579,0,0,0,3.805-.481c.477-.053,2.575.246,3.521.317l.819-.166a8.854,8.854,0,0,1,4.114-.029,5.382,5.382,0,0,0,1.037,0c.93-.018,1.86-.04,2.79-.055h.044a.4.4,0,0,1,.128.24,4.922,4.922,0,0,1-2.132.442c-1.178.035-5.109.188-6.125.338s-4.617.2-5.672.211-5.139-.091-6.733-.317l-1.5.157a38.857,38.857,0,0,1-4.356.105c-.595,0-1.336-.41-1.75-.207l-.73.358C467,138.7,465.17,138.729,464.7,138.732Z" transform="translate(-447.378 -137.234)" fill="#16686d"/></g><g transform="translate(108.468 1.91)"><path d="M367.479,80.632a7.908,7.908,0,0,1-2.924,0l-1.286.178-1,.138a18.55,18.55,0,0,1-2.522-.061c-.268-.06-2.384-.071-4.111-.033s-7.365.336-8.69.608l-1.276-.07c-1.33-.073-2.673.035-4.011.064l-3.837.083-4.012.087-1.279.027c-1.4.051-3.759.145-5.237.207s-5.419.283-5.517.175l-.019-.089-.018-.088c.053-.158.649-.3,1.324-.313l.627-.014,1.4-.03c1.535-.028,4.91-.195,7.5-.37s12.582-.39,16.42-.465c0,0,2.674-.052,7.5-.156,4.767-.1,7.325-.162,7.325-.162,3.838-.088,7.715-.28,8.617-.427l.827-.069.357-.03a2.538,2.538,0,0,0,1.162.118c.15-.071,3.772-.209,7.61-.3,0,0,5.7-.129,12.035-.262h.044a.4.4,0,0,1,.13.239,18.467,18.467,0,0,1-4.274.456l-2.134.073a5.609,5.609,0,0,0-1.8.267,2.855,2.855,0,0,1-2.318-.1,2.2,2.2,0,0,0-1-.068c-2.617.051-5.233.1-7.85.174l-.433.012a14.136,14.136,0,0,1-2.4.232l-.781-.033a3.675,3.675,0,0,1-.46-.128c-.644-.116-1.194.311-1.765.308s-1.152-.369-1.779-.221Z" transform="translate(-321.741 -79.383)" fill="#16686d"/></g><g transform="translate(7.356 18.07)"><path d="M91.733,88.793a14.88,14.88,0,0,1,2.48-.375c1.363-.146,7.462-.254,10.466-.295l2.729-.091c.768-.026,1.612.229,2.295-.343l.064-.053c.152.024,2.434.055,5.07.07l2.393.127.166.009c.2.01.384.085.4.168s.008.317-.049.359-3.338.17-7.175.282c0,0-.112,0-3.657.009l-1.547,0a9.466,9.466,0,0,0-3.7,1.163c-.318.362-1.541.946-1.426.617s.292-1.232.145-1.307a1.973,1.973,0,0,0-1.091-.107,3.389,3.389,0,0,1-1.8.151,14.53,14.53,0,0,0-3.127-.234A18.4,18.4,0,0,1,91.733,88.793Z" transform="translate(-91.733 -87.636)" fill="#16686d"/></g><g transform="translate(39.539 4.984)"><path d="M165.969,87.7c-.639-.124-1.1-.292-1.016-.373a36.13,36.13,0,0,1,5.5-.59l2.589.127c1.226.06,2.459.224,3.694.165a7.443,7.443,0,0,0,2.309-.292l.968-.347a7.753,7.753,0,0,0,2.164.659,2.3,2.3,0,0,1,1.136-.659c.537-.105,2.334.4,2.84.311a6.6,6.6,0,0,1,2.018-.063,2.458,2.458,0,0,0,1.114.414c.338-.007,1.428-.107,1.229-.2s-.587-.351-.357-.357.771.1.775.246a1.309,1.309,0,0,1-.095.557c-.06.032-2.452.114-5.195.18s-11.135.1-12.552-.023l-1.286.023-1.169.022A25.617,25.617,0,0,1,165.969,87.7Z" transform="translate(-164.943 -86.375)" fill="#16686d"/></g><g transform="translate(268.364 3.15)"><path d="M693.943,85.832a6.305,6.305,0,0,0-1.423-.329,2.2,2.2,0,0,1-1.065-.271,5.508,5.508,0,0,0-2.034-.935,18.036,18.036,0,0,1-3.123-1.1c.041-.08.011-.338-.173-.36s-.646-.132-.655-.2a.816.816,0,0,1,.139-.433l.057.011,1.537.3a23.867,23.867,0,0,1,4.836,1.579l.925.4.527.229a5.914,5.914,0,0,1,1.847.6C695.539,85.493,694.5,86.018,693.943,85.832Z" transform="translate(-685.469 -82.202)" fill="#16686d"/></g><g transform="translate(108.493 2.28)"><path d="M333.651,80.258a23.629,23.629,0,0,1,3.795.052c.1.089.261.347.19.44l-.075.009c-.229.028-.464.018-.7.024l-1.628.035c-1.79.04-3.966.095-4.833.121s-3.894.342-4.786.376-3.447.087-3.687.082-.256-.188.831-.386,5.4-.5,7.318-.758l1.77,0Z" transform="translate(-321.797 -80.224)" fill="#16686d"/></g><g transform="translate(249.216 0.295)"><path d="M653.047,76.285a15.82,15.82,0,0,1,2.37.366c.2.088.627.324.586.371s-1.472.208-3.086.357l-1.4-.216c-2.125-.328-4.342.084-6.4-.7a2.124,2.124,0,0,0-1.018-.018l-1.066.169c-1.066-.353-1.438-.748-.828-.879a7.868,7.868,0,0,1,2.3.387l.056-.01,1.482-.26C647.633,76.109,651.947,76.171,653.047,76.285Z" transform="translate(-641.912 -75.707)" fill="#16686d"/></g><g transform="translate(260.922 93.569)"><path d="M671.382,135.473c.18-.039.637-.1,1.016-.134a11.09,11.09,0,0,1,1.384-.028,2.372,2.372,0,0,1-.782.308c-.441.113-1.484.5-1.342.618l.084.127.051.077a.4.4,0,0,1-.347.353c-.174.013-.649-.055-.7-.175s-.371-.376-.6-.3-1.023.162-1.176-.022-.471-.642-.427-.684l.136.022.517.084c.724.162,1.154.117.954-.1s-.536-.782-.38-.856.441-.306.3-.36-.48-.413-.3-.614a2.479,2.479,0,0,1,1.005-.663c.238-.005.9.135.819.326s-.175.727-.043.782.492.349.421.492-.263.653-.26.628a.384.384,0,0,0-.342-.095,2.711,2.711,0,0,0-.674.164A1.724,1.724,0,0,0,671.382,135.473Z" transform="translate(-668.54 -133.129)" fill="#16686d"/></g><g transform="translate(173.343 0)"><path d="M479.343,75.067a30.193,30.193,0,0,1,4.854.078A11.48,11.48,0,0,1,481,75.61c-1.519.033-6.632.015-7.916-.113l-1.175,0a3.153,3.153,0,0,0-1.942.335l-.136.1c-.282-.037-.516-.156-.519-.263S476.564,75.127,479.343,75.067Z" transform="translate(-469.316 -75.037)" fill="#16686d"/></g><g transform="translate(151.37 0.288)"><path d="M432.124,76.372a11.253,11.253,0,0,1-1.536.089l-.747.016-1.334.029c-1.467.038-3.824.174-5.238.3l-1.279.157-.954.118a7.416,7.416,0,0,1-1.7-.593c.042-.049,3.138-.407,6.833-.8l3.392.168.368.018a4.061,4.061,0,0,0,.9.09.989.989,0,0,1,.608-.031A2.81,2.81,0,0,1,432.124,76.372Z" transform="translate(-419.334 -75.693)" fill="#16686d"/></g><g transform="translate(87.2 4.104)"><path d="M290.705,84.373a4.916,4.916,0,0,1,1.835.257,40.791,40.791,0,0,1-6.4.475c-3.512.076-12.773.248-12.775.214s.163-.138.371-.156,3.523-.1,6.9-.161l3.069-.093a3.36,3.36,0,0,0,2.129-.323l.2-.147c.44.086,1.451.271,2.246.411l1.612-.317Z" transform="translate(-273.361 -84.373)" fill="#16686d"/></g><g transform="translate(279.55 23.476)"><path d="M710.919,91.383c.1-.124.755.013,1.463.3a29.6,29.6,0,0,1,2.871,1.337,3.109,3.109,0,0,0,.728.579c.182.088.557.4.45.518a1.333,1.333,0,0,1-.922.287,14.876,14.876,0,0,1-2.4-.982A8.538,8.538,0,0,1,710.919,91.383Z" transform="translate(-710.914 -91.337)" fill="#16686d"/></g><g transform="translate(275.973 26.372)"><path d="M706.159,95.168c.243.273.181.583-.139.689a4.717,4.717,0,0,1-1.55.229c-.209-.087-.714-.371-.649-.436a.743.743,0,0,0-.226-.742c-.276-.256-.9-1.111-.808-1.2a1.448,1.448,0,0,1,1.064-.037A13.461,13.461,0,0,1,706.159,95.168Z" transform="translate(-702.777 -93.587)" fill="#16686d"/></g><g transform="translate(267.318 65.943)"><path d="M685.852,122.832a4.343,4.343,0,0,1,1.223.222,9.1,9.1,0,0,1,1.336.555,1.946,1.946,0,0,1-1.11.225c-.625-.01-2.24-.386-2.286-.261a1.129,1.129,0,0,1-.816.417c-.367.007-1.244-.2-1.093-.478s1.377-.153,1.411-.25A3.914,3.914,0,0,1,685.852,122.832Z" transform="translate(-683.089 -122.831)" fill="#16686d"/></g><g transform="translate(90.707 3.794)"><path d="M281.95,84.317c-.421,0-.688-.237-.592-.517l.055-.009a20.206,20.206,0,0,1,2.672-.12,50.173,50.173,0,0,1,5.878.216l-.547-.021c-2.4-.092-4.734.66-7.143.477Z" transform="translate(-281.339 -83.667)" fill="#16686d"/></g><g transform="translate(250.608 96.861)"><path d="M650.271,140.62c.481-.01.724.05.542.133s-.481.365-.13.383a4.97,4.97,0,0,1,1.26.194c.022.073-.193.377-.539.46a6.608,6.608,0,0,1-1.465.2c-.079-.063-.289-.323-.248-.4s-.509-.331-1.383-.233a16.634,16.634,0,0,1-3.229.113c0-.135.552-.434,1.246-.286S649.791,140.63,650.271,140.62Z" transform="translate(-645.079 -140.618)" fill="#16686d"/></g><g transform="translate(254.451 83.117)"><path d="M656.732,134.361c0,.051-.063.108-.149.126s-.329.2-.274.351a1.441,1.441,0,0,1-.165.935,2.1,2.1,0,0,1-1.481.412c-.14-.141-.491-.616-.436-.709s.091-.5-.138-.538-.544-.277.18-.389A18.05,18.05,0,0,1,656.732,134.361Z" transform="translate(-653.82 -134.349)" fill="#16686d"/></g><g transform="translate(125.995 1.689)"><path d="M362.507,79.4c-1.027.072-1.2.164-.38.2s3.33-.535,3.956-.439a14.215,14.215,0,0,0,3.09-.285l.521.246.392.185c.625.02.938.087.7.149l-.221.006c-1.681.045-3.364.054-5.043.126-.595.025-1.275-.226-1.776.328a.565.565,0,0,1-.5.011Z" transform="translate(-361.61 -78.88)" fill="#16686d"/></g><g transform="translate(237.845 82.203)"><path d="M616.888,135.786c-.6.112-.962.018-.806-.208a3.658,3.658,0,0,1,2.088-.685,26.675,26.675,0,0,1,3.456.109c.071.1-.147.42-.7.418S617.487,135.674,616.888,135.786Z" transform="translate(-616.046 -134.887)" fill="#16686d"/></g><g transform="translate(260.055 66.604)"><path d="M668.343,123.216a1.476,1.476,0,0,1,.9.234,1.58,1.58,0,0,1,.376.655c.013.167-.393.449-.926.334s-2.084-.193-2.121-.5l.062-.179.063-.179A4.542,4.542,0,0,1,668.343,123.216Z" transform="translate(-666.568 -123.216)" fill="#16686d"/></g><g transform="translate(36.223 97.533)"><path d="M165.579,142.545c1.412-.032.956-.024-1.013.019s-7.164.108-7.167.051.243-.2.553-.2a7.589,7.589,0,0,0,1.611-.253C159.835,142.054,164.167,142.577,165.579,142.545Z" transform="translate(-157.399 -142.147)" fill="#16686d"/></g><g transform="translate(281.162 2.553)"><path d="M714.671,81.115c-.323-.312.252-.36,1.28-.107s3.429,1.189,3.194,1.47l-.468-.137a28.747,28.747,0,0,0-3.787-1.194Z" transform="translate(-714.581 -80.846)" fill="#16686d"/></g><g transform="translate(260.319 98.662)"><path d="M667.243,145.326c.339.066.464.032.277-.076s-.449-.5.018-.532a9.4,9.4,0,0,1,1.717.17.669.669,0,0,1,.408.474l-.019.007-.874.321C667.765,145.935,666.9,145.26,667.243,145.326Z" transform="translate(-667.168 -144.714)" fill="#16686d"/></g><g transform="translate(129.101 5.548)"><path d="M369.357,88.258c-.912.019-.907-.082.01-.224a28.9,28.9,0,0,1,3.417-.361.673.673,0,0,1,.037.386C372.777,88.122,370.269,88.239,369.357,88.258Z" transform="translate(-368.676 -87.658)" fill="#16686d"/></g><g transform="translate(38.63 95.675)"><path d="M164.516,138.728a7.157,7.157,0,0,1-1.642.4,5.729,5.729,0,0,1,1.712-.927,12.5,12.5,0,0,1,3.627-.238C168.073,138.008,165.413,138.455,164.516,138.728Z" transform="translate(-162.874 -137.921)" fill="#16686d"/></g><g transform="translate(249.252 98.914)"><path d="M644.052,146.426a.976.976,0,0,1-.752.281,4.6,4.6,0,0,1-1.306-.125.478.478,0,0,1,.37-.426c.247-.022,1.1-.171.9-.24s-.63-.3-.616-.391a.519.519,0,0,1,.648-.192C643.617,145.478,644.128,146.278,644.052,146.426Z" transform="translate(-641.993 -145.287)" fill="#16686d"/></g><g transform="translate(252.633 100.336)"><path d="M649.73,148.9c-.174-.2.153-.368.727-.38a10.675,10.675,0,0,1,2.058.111c.014.085-.258.37-.632.461A5.161,5.161,0,0,1,649.73,148.9Z" transform="translate(-649.684 -148.523)" fill="#16686d"/></g><g transform="translate(269.211 62.595)"><path d="M688.115,121.523c-.618-.2-.891-.468-.6-.6a3.174,3.174,0,0,1,1.648-.177C689.487,120.912,688.733,121.723,688.115,121.523Z" transform="translate(-687.396 -120.69)" fill="#16686d"/></g><g transform="translate(272.99 64.079)"><path d="M696.64,122.4c-.375.216-.631.3-.568.183s.14-.52.022-.626-.2-.386.137-.341S697.016,122.187,696.64,122.4Z" transform="translate(-695.992 -121.615)" fill="#16686d"/></g><g transform="translate(237.465 77.55)"><path d="M615.436,131.922c.417-.164.769-.243.784-.176a1.349,1.349,0,0,1-.662.694C615.153,132.637,615.019,132.087,615.436,131.922Z" transform="translate(-615.181 -131.722)" fill="#16686d"/></g><g transform="translate(138.135 1.641)"><path d="M390.33,78.771c.32-.007.343.093.051.222s-1.129.3-1.154.205S390.01,78.777,390.33,78.771Z" transform="translate(-389.226 -78.77)" fill="#16686d"/></g><g transform="translate(257.644 64.167)"><path d="M663.522,122.481c.025.1-.339.191-.81.2s-1.627.018-1.628,0a2.883,2.883,0,0,1,.761-.248A4.464,4.464,0,0,1,663.522,122.481Z" transform="translate(-661.084 -122.379)" fill="#16686d"/></g><g transform="translate(246.653 99.942)"><path d="M636.25,148.267c-.226-.175-.224-.4,0-.493s.932-.243.95-.063S636.476,148.441,636.25,148.267Z" transform="translate(-636.082 -147.625)" fill="#16686d"/></g><g transform="translate(9.649 81.41)"><path d="M99.147,134.887a3.592,3.592,0,0,1-2.2.46C97.529,134.8,97.529,134.8,99.147,134.887Z" transform="translate(-96.949 -134.845)" fill="#16686d"/></g><g transform="translate(259.324 56.718)"><path d="M665.89,116.694c.225.174.328.361.229.416s-.409.158-.474.111-.282-.124-.351-.072-.384.125-.39-.074S665.666,116.519,665.89,116.694Z" transform="translate(-664.905 -116.647)" fill="#16686d"/></g><g transform="translate(85.117 3.922)"><path d="M269.2,84.684c-.313-.016-.571-.117-.575-.227a.844.844,0,0,1,.607-.492C269.57,83.891,269.51,84.7,269.2,84.684Z" transform="translate(-268.623 -83.96)" fill="#16686d"/></g><g transform="translate(270.771 57.192)"><path d="M692.7,117.14a1.191,1.191,0,0,1-.435.193,4.29,4.29,0,0,1-1.287.218.334.334,0,0,1,.328-.48A11.275,11.275,0,0,1,692.7,117.14Z" transform="translate(-690.944 -117.07)" fill="#16686d"/></g><g transform="translate(19.094 2.923)"><path d="M118.74,82.285c-.272.006-.383-.093-.248-.219a1.788,1.788,0,0,1,.79-.379,5.215,5.215,0,0,1,.833.037c.027.03-.012.152-.149.2s-.471.214-.44.24A3.026,3.026,0,0,1,118.74,82.285Z" transform="translate(-118.434 -81.686)" fill="#16686d"/></g><g transform="translate(268.916 78.606)"><path d="M686.725,132.88a1.209,1.209,0,0,1,.537-.1c.293-.02,1.16.006,1.176.109a.473.473,0,0,1-.541.4A6.773,6.773,0,0,1,686.725,132.88Z" transform="translate(-686.725 -132.77)" fill="#16686d"/></g><g transform="translate(251.884 80.75)"><path d="M648.85,134.362c.232,0,.448.1.481.236l.008.1,0,.042a.748.748,0,0,1-.5.142c-.228,0-.863-.056-.865-.148S648.619,134.367,648.85,134.362Z" transform="translate(-647.98 -134.362)" fill="#16686d"/></g><g transform="translate(268.514 94.612)"><path d="M685.81,136.389c.524-.335.669-.859,1.31-.886C687.263,136.314,687.153,136.4,685.81,136.389Z" transform="translate(-685.81 -135.503)" fill="#16686d"/></g><g transform="translate(238.023 97.224)"><path d="M616.449,141.55a2.351,2.351,0,0,1,.885-.106c.489-.011,1.528.065.9.2l-.444.045-.441.045A1.774,1.774,0,0,1,616.449,141.55Z" transform="translate(-616.449 -141.443)" fill="#16686d"/></g><g transform="translate(242.963 99.612)"><path d="M629.048,147.214c.028.114-.162.212-.422.218a2.458,2.458,0,0,1-.939-.129c-.02-.082.1-.411.348-.427A1.978,1.978,0,0,1,629.048,147.214Z" transform="translate(-627.686 -146.875)" fill="#16686d"/></g><g transform="translate(253.971 79.036)"><path d="M654.817,133.513c.236.075.018.145-.484.156s-1.6.012-1.6-.014a1.082,1.082,0,0,1,.512-.2A6.111,6.111,0,0,1,654.817,133.513Z" transform="translate(-652.729 -133.424)" fill="#16686d"/></g><g transform="translate(3.127 46.754)"><path d="M82.555,109.822c-.32.073-.509.064-.42-.019a1.759,1.759,0,0,1,.767-.335C83.122,109.472,82.875,109.748,82.555,109.822Z" transform="translate(-82.113 -109.467)" fill="#16686d"/></g><g transform="translate(268.001 23.941)"><path d="M685.222,93.033a.9.9,0,0,1-.554-.129c-.067-.076-.011-.261.305-.2S685.46,93.029,685.222,93.033Z" transform="translate(-684.643 -92.689)" fill="#16686d"/></g><g transform="translate(4.46 41.834)"><path d="M86.771,105.858a1.863,1.863,0,0,1-.527.208,7.955,7.955,0,0,1-1.1.268,1.122,1.122,0,0,1,.395-.5l.274-.072.291-.076A1.84,1.84,0,0,1,86.771,105.858Z" transform="translate(-85.145 -105.688)" fill="#16686d"/></g><g transform="translate(259.605 97.37)"><path d="M665.547,141.991c-.028-.114.109-.21.305-.215s.686.053.706.135-.053.4-.233.419A1.354,1.354,0,0,1,665.547,141.991Z" transform="translate(-665.544 -141.777)" fill="#16686d"/></g><g transform="translate(226.564 100.303)"><path d="M590.913,149.138c-.289-.092-.527-.24-.529-.33s.135-.358.312-.362S591.2,149.231,590.913,149.138Z" transform="translate(-590.384 -148.447)" fill="#16686d"/></g><g transform="translate(266.641 98.127)"><path d="M681.713,143.578c.259-.121.474-.1.478.04a.528.528,0,0,1-.426.46C681.524,144.084,681.454,143.7,681.713,143.578Z" transform="translate(-681.549 -143.498)" fill="#16686d"/></g><g transform="translate(280.694 4.496)"><path d="M713.566,85.489c-.123-.117,0-.218.262-.223s1,.066.783.178A1.652,1.652,0,0,1,713.566,85.489Z" transform="translate(-713.517 -85.265)" fill="#16686d"/></g><g transform="translate(268.628 80.325)"><path d="M686.492,133.964c.131.128.168.3.082.379s-.406.258-.492.189S686.361,133.837,686.492,133.964Z" transform="translate(-686.068 -133.947)" fill="#16686d"/></g><g transform="translate(245.322 95.762)"><path d="M634.18,138.174c.234.1.159.179-.166.186s-1.08-.052-.945-.148A2.151,2.151,0,0,1,634.18,138.174Z" transform="translate(-633.053 -138.118)" fill="#16686d"/></g><g transform="translate(251.52 95.085)"><path d="M647.153,136.645a1.678,1.678,0,0,1,.58-.065,10.164,10.164,0,0,1,1.164.027,1.179,1.179,0,0,1-.578.117A7.628,7.628,0,0,1,647.153,136.645Z" transform="translate(-647.153 -136.578)" fill="#16686d"/></g><g transform="translate(12.368 74.03)"><path d="M103.134,129.869c-.007-.049.179-.093.412-.1a4.494,4.494,0,0,1,.855.046c0,.036-.177.144-.407.163A2.568,2.568,0,0,1,103.134,129.869Z" transform="translate(-103.134 -129.77)" fill="#16686d"/></g><g transform="translate(47.76 100.154)"><path d="M183.9,148.621c-.258.039-.339-.052-.178-.2s.532-.373.613-.294S184.163,148.583,183.9,148.621Z" transform="translate(-183.644 -148.108)" fill="#16686d"/></g><g transform="translate(278.146 2.694)"><path d="M707.722,81.577c-.007-.027.141-.075.327-.106l.139-.073.139-.073c.157-.164.306-.209.33-.1s-.061.434-.254.438A2.746,2.746,0,0,1,707.722,81.577Z" transform="translate(-707.721 -81.166)" fill="#16686d"/></g><g transform="translate(257.664 100.567)"><path d="M661.13,149.148c-.006-.049.181-.094.414-.1a4.468,4.468,0,0,1,.855.046c0,.036-.176.144-.407.163A2.558,2.558,0,0,1,661.13,149.148Z" transform="translate(-661.13 -149.049)" fill="#16686d"/></g><g transform="translate(140.884 1.521)"><path d="M395.5,79.01c-.043-.037-.011-.146.073-.243s.468-.379.5-.225.032.513-.073.534A1.329,1.329,0,0,1,395.5,79.01Z" transform="translate(-395.48 -78.497)" fill="#16686d"/></g><g transform="translate(275.079 56.572)"><path d="M701.67,116.974c0,.051-.134.095-.3.1a2.834,2.834,0,0,1-.624-.041c0-.03.127-.129.3-.153A1.33,1.33,0,0,1,701.67,116.974Z" transform="translate(-700.743 -116.873)" fill="#16686d"/></g><g transform="translate(265.035 97.885)"><path d="M677.946,143.168c-.076-.12-.061-.22.033-.222s.385.075.387.177S678.022,143.288,677.946,143.168Z" transform="translate(-677.897 -142.947)" fill="#16686d"/></g><g transform="translate(235.287 99.175)"><path d="M610.227,145.981c-.007-.051.126-.095.3-.1a2.94,2.94,0,0,1,.625.04c0,.029-.121.126-.288.152A1.372,1.372,0,0,1,610.227,145.981Z" transform="translate(-610.226 -145.882)" fill="#16686d"/></g><g transform="translate(272.922 47.703)"><path d="M695.948,110.685c-.056,0-.106-.12-.11-.273a2.053,2.053,0,0,1,.046-.559c.034,0,.144.114.171.267S696,110.682,695.948,110.685Z" transform="translate(-695.837 -109.853)" fill="#16686d"/></g><g transform="translate(261.772 97.346)"><path d="M670.578,142.24c-.054,0-.1-.07-.1-.165s.016-.35.048-.354a.229.229,0,0,1,.161.157C670.708,141.973,670.632,142.235,670.578,142.24Z" transform="translate(-670.473 -141.72)" fill="#16686d"/></g><g transform="translate(234.22 97.272)"><path d="M607.863,142.18c-.032,0-.061-.093-.064-.207a1.2,1.2,0,0,1,.047-.418c.032,0,.119.091.122.206A.993.993,0,0,1,607.863,142.18Z" transform="translate(-607.799 -141.554)" fill="#16686d"/></g><g transform="translate(5.573 56.211)"><path d="M88.252,116.711c.008.05-.073.092-.178.094a1.282,1.282,0,0,1-.4-.041c-.006-.027.064-.119.168-.144S88.244,116.662,88.252,116.711Z" transform="translate(-87.677 -116.615)" fill="#16686d"/></g><g transform="translate(4.536 56.244)"><path d="M85.318,116.734c-.008-.049.073-.092.178-.094a1.3,1.3,0,0,1,.4.041c.006.027-.064.119-.168.143S85.326,116.783,85.318,116.734Z" transform="translate(-85.318 -116.64)" fill="#16686d"/></g><g transform="translate(0 56.546)"><path d="M75,116.957c-.007-.05.073-.092.179-.094a1.309,1.309,0,0,1,.4.041c.006.027-.064.119-.168.144S75.008,117.006,75,116.957Z" transform="translate(-75 -116.863)" fill="#16686d"/></g><g transform="translate(261.096 97.69)"><path d="M669.044,142.5c.055-.007.1.064.1.16a.943.943,0,0,1-.046.355.222.222,0,0,1-.16-.15C668.915,142.776,668.988,142.512,669.044,142.5Z" transform="translate(-668.936 -142.504)" fill="#16686d"/></g><g transform="translate(260.976 57.46)"><path d="M668.944,117.456c.174.193.172.317,0,.277s-.388-.178-.212-.244l.166-.025Z" transform="translate(-668.662 -117.456)" fill="#16686d"/></g><g transform="translate(5.351 69.665)"><path d="M87.173,126.661c-.008-.05.073-.092.179-.094a1.312,1.312,0,0,1,.4.041c.005.027-.065.119-.169.144S87.181,126.71,87.173,126.661Z" transform="translate(-87.173 -126.567)" fill="#16686d"/></g><g transform="translate(276.408 44.212)"><path d="M703.831,108.071c-.032,0-.061-.092-.064-.207a1.2,1.2,0,0,1,.047-.419.23.23,0,0,1,.122.206A.989.989,0,0,1,703.831,108.071Z" transform="translate(-703.767 -107.445)" fill="#16686d"/></g><g transform="translate(9.221 74.257)"><path d="M96.551,130.058c.008.05-.073.092-.178.095a1.293,1.293,0,0,1-.4-.041c-.006-.027.064-.119.168-.143S96.544,130.009,96.551,130.058Z" transform="translate(-95.976 -129.963)" fill="#16686d"/></g><g transform="translate(268.407 44.456)"><path d="M685.639,107.837c.021,0,.04.046.041.1s-.012.209-.033.209a.117.117,0,0,1-.08-.1C685.566,107.99,685.617,107.837,685.639,107.837Z" transform="translate(-685.567 -107.837)" fill="#16686d"/></g><g transform="translate(279.198 40.844)"><path d="M710.186,105.172c.021,0,.04.046.042.1s-.012.209-.034.209a.117.117,0,0,1-.08-.1C710.112,105.325,710.164,105.172,710.186,105.172Z" transform="translate(-710.114 -105.172)" fill="#16686d"/></g><g transform="translate(1.346 58.436)"><path d="M78.062,118.377c0-.019.051-.036.115-.037s.233.011.233.029a.126.126,0,0,1-.114.072A.526.526,0,0,1,78.062,118.377Z" transform="translate(-78.062 -118.34)" fill="#16686d"/></g><g transform="translate(9.869 67.605)"><path d="M97.73,125.228c-.012.011-.066-.011-.119-.05s-.178-.157-.158-.175a.141.141,0,0,1,.155.016A.582.582,0,0,1,97.73,125.228Z" transform="translate(-97.45 -124.987)" fill="#16686d"/></g><g transform="translate(6.651 67.755)"><path d="M90.132,125.341c-.013-.011.012-.059.056-.107s.175-.159.2-.142a.107.107,0,0,1-.018.139A.706.706,0,0,1,90.132,125.341Z" transform="translate(-90.128 -125.091)" fill="#16686d"/></g><g transform="translate(0.817 64.2)"><path d="M76.9,122.717c-.021,0-.04-.046-.041-.1s.012-.209.033-.209a.117.117,0,0,1,.08.1C76.973,122.564,76.921,122.716,76.9,122.717Z" transform="translate(-76.858 -122.404)" fill="#16686d"/></g><g transform="translate(278.126 38.019)"><path d="M707.747,103.088c.021,0,.04.046.041.1s-.012.209-.033.209a.117.117,0,0,1-.081-.1C707.674,103.241,707.725,103.089,707.747,103.088Z" transform="translate(-707.675 -103.088)" fill="#16686d"/></g><g transform="translate(18.827 3.535)"><path d="M118.1,83.081c.013.011-.012.059-.056.107s-.175.16-.2.142a.107.107,0,0,1,.018-.139A.7.7,0,0,1,118.1,83.081Z" transform="translate(-117.828 -83.08)" fill="#16686d"/></g><g transform="translate(273.706 54.657)"><path d="M697.888,115.416c.013.011-.012.059-.056.107s-.174.159-.195.142a.106.106,0,0,1,.018-.139A.711.711,0,0,1,697.888,115.416Z" transform="translate(-697.62 -115.415)" fill="#16686d"/></g><g transform="translate(273.943 53.841)"><path d="M698.163,115.062c-.013-.011.012-.059.055-.107s.175-.16.2-.142a.107.107,0,0,1-.018.139A.7.7,0,0,1,698.163,115.062Z" transform="translate(-698.159 -114.812)" fill="#16686d"/></g><g transform="translate(6.414 68.571)"><path d="M89.858,125.694c.013.011-.012.059-.055.107s-.175.16-.2.142a.107.107,0,0,1,.018-.139A.7.7,0,0,1,89.858,125.694Z" transform="translate(-89.589 -125.693)" fill="#16686d"/></g><g transform="translate(268.209 61.838)"><path d="M685.189,120.662c.021,0,.04.046.042.1s-.012.209-.033.209a.118.118,0,0,1-.08-.1C685.116,120.815,685.167,120.662,685.189,120.662Z" transform="translate(-685.117 -120.662)" fill="#16686d"/></g><g transform="translate(11.027 74.131)"><path d="M100.156,129.731c.022,0,.04.046.042.1s-.012.209-.033.209a.117.117,0,0,1-.08-.1A.415.415,0,0,1,100.156,129.731Z" transform="translate(-100.084 -129.731)" fill="#16686d"/></g><g transform="translate(6.492 74.433)"><path d="M89.839,129.954c.022,0,.04.046.042.1s-.012.209-.033.209a.117.117,0,0,1-.08-.1A.409.409,0,0,1,89.839,129.954Z" transform="translate(-89.767 -129.954)" fill="#16686d"/></g></svg>