<svg xmlns="http://www.w3.org/2000/svg" width="88.888" height="66.24" viewBox="0 0 88.888 66.24"><g transform="matrix(0.883, 0.469, -0.469, 0.883, 86.236, -186.309)"><path d="M80.251,189.5c6.567.43,14.183,2.923,20.381,5.859a1.439,1.439,0,0,1,.295,2.413,67.251,67.251,0,0,0-14.132,15.69,1.438,1.438,0,0,1-2.514-.2A105.949,105.949,0,0,1,77.124,191.2a1.439,1.439,0,0,1,1.383-1.7C79.188,189.488,79.9,189.479,80.251,189.5Z" fill="#fff" stroke="#fff" stroke-linecap="round" stroke-linejoin="round" stroke-width="3"/><path d="M33.034,222.27c5.006-7.821,11.418-14.874,19.339-19.722s16.733-7.464,25.929-6.163l3.159,9.715a48.819,48.819,0,0,0-19.853,13.839,89.5,89.5,0,0,0-13.229,20.48c-.716-.3-13.977-11.664-15.491-18.026" fill="#fff" stroke="#fff" stroke-linecap="round" stroke-linejoin="round" stroke-width="3"/><path d="M73.922,197.494c-6.171-.326-12.283,1.767-17.584,4.942S46.45,209.833,42,214.124" fill="none" stroke="#000" stroke-linecap="round" stroke-linejoin="round" stroke-width="1"/><path d="M39.093,216.808l.736.849-.736-.849" fill="none" stroke="#000" stroke-linecap="round" stroke-linejoin="round" stroke-width="1"/><path d="M36.879,218.254c.221.263.437.53.645.8l-.559-.894" fill="none" stroke="#000" stroke-linecap="round" stroke-linejoin="round" stroke-width="1"/></g></svg>