<svg xmlns="http://www.w3.org/2000/svg" width="88.888" height="66.24" viewBox="0 0 88.888 66.24"><g transform="matrix(-0.883, 0.469, -0.469, -0.883, 86.483, 41.408)"><g transform="translate(0 0)"><path d="M3.153,24.609c6.567-.43,14.183-2.923,20.381-5.859a1.439,1.439,0,0,0,.295-2.413A67.251,67.251,0,0,1,9.7.647a1.438,1.438,0,0,0-2.514.2A105.949,105.949,0,0,0,.026,22.908a1.439,1.439,0,0,0,1.383,1.7C2.09,24.623,2.8,24.632,3.153,24.609Z" transform="translate(44.21 26.308)" fill="#fff" stroke="#fff" stroke-linecap="round" stroke-linejoin="round" stroke-width="3"/><path d="M.146,18.149C5.152,25.97,11.564,33.023,19.485,37.871s16.733,7.464,25.929,6.163l3.159-9.715A48.819,48.819,0,0,1,28.72,20.48,89.5,89.5,0,0,1,15.491,0C14.775.3,1.514,11.664,0,18.026" transform="translate(0 0)" fill="#fff" stroke="#fff" stroke-linecap="round" stroke-linejoin="round" stroke-width="3"/></g><g transform="translate(3.991 21.362)"><path d="M31.918,16.63c-6.171.326-12.283-1.767-17.584-4.942S4.446,4.291,0,0" transform="translate(5.125 4.933)" fill="none" stroke="#000" stroke-linecap="round" stroke-linejoin="round" stroke-width="1"/><path d="M0,.849.736,0,0,.849" transform="translate(2.214 1.4)" fill="none" stroke="#000" stroke-linecap="round" stroke-linejoin="round" stroke-width="1"/><path d="M0,.8C.221.54.437.273.645,0L.086.894" transform="translate(0 0)" fill="none" stroke="#000" stroke-linecap="round" stroke-linejoin="round" stroke-width="1"/></g></g></svg>